<svg width="253" height="267" viewBox="0 0 253 267" fill="none" xmlns="http://www.w3.org/2000/svg">
<path d="M127.179 266.033L100.57 220.538L153.788 220.538L127.179 266.033Z" fill="#2FC18C"/>
<g filter="url(#filter0_di_9_298)">
<ellipse cx="126.5" cy="122.599" rx="116.5" ry="115.632" fill="#3C1B7A"/>
<path d="M126.5 241.231C192.477 241.231 246 188.139 246 122.599C246 57.0592 192.477 3.96704 126.5 3.96704C60.5232 3.96704 7 57.0592 7 122.599C7 188.139 60.5232 241.231 126.5 241.231Z" stroke="#2FC18C" stroke-width="6"/>
</g>
<path d="M119.788 101.663L135.352 101.733L135.284 116.633L119.719 116.563L119.788 101.663ZM100.896 64.4569C101.359 54.6631 104.855 47.7357 111.385 43.6748C115.506 41.0811 120.561 39.7977 126.55 39.8246C134.419 39.86 140.939 41.7454 146.11 45.4808C151.316 49.2164 153.902 54.7275 153.868 62.0141C153.848 66.4824 152.699 70.2409 150.421 73.2898C149.09 75.1399 146.537 77.5 142.763 80.3703L139.042 83.1892C137.015 84.7269 135.666 86.5253 134.995 88.5846C134.571 89.8888 134.336 91.9157 134.288 94.6652L120.186 94.6018C120.422 88.794 120.998 84.7923 121.913 82.5966C122.829 80.3666 125.173 77.8164 128.947 74.9462L132.773 72.0246C134.031 71.1022 135.046 70.0928 135.817 68.9964C137.218 67.1122 137.924 65.0359 137.935 62.7674C137.947 60.1552 137.174 57.7801 135.617 55.642C134.095 53.4698 131.28 52.3744 127.171 52.3559C123.132 52.3378 120.253 53.6481 118.535 56.287C116.851 58.9261 116.003 61.672 115.99 64.5248L100.896 64.4569Z" fill="#2FC18C"/>
<path d="M163.067 108.046L172.814 113.659L167.307 122.976L157.561 117.363L163.067 108.046ZM164.848 77.9592C168.73 71.9847 173.466 68.8929 179.055 68.6837C182.593 68.5321 186.238 69.5364 189.988 71.6964C194.916 74.5345 198.319 78.0497 200.196 82.242C202.095 86.4468 201.698 90.8274 199.005 95.3836C197.353 98.1776 195.254 100.123 192.706 101.219C191.191 101.903 188.723 102.469 185.301 102.918L181.931 103.354C180.094 103.592 178.588 104.237 177.411 105.288C176.667 105.954 175.776 107.14 174.738 108.847L165.907 103.761C168.184 100.204 170.013 97.9016 171.393 96.8526C172.786 95.7822 175.193 95.0224 178.615 94.5734L182.089 94.1109C183.217 93.9827 184.224 93.7129 185.11 93.3014C186.681 92.6217 187.886 91.5726 188.724 90.1541C189.689 88.5207 190.075 86.7552 189.882 84.8576C189.722 82.9511 188.356 81.2569 185.783 79.775C183.254 78.3183 180.966 78.1097 178.919 79.1492C176.895 80.2013 175.355 81.6193 174.301 83.4031L164.848 77.9592Z" fill="#EA5D5D"/>
<path d="M78.2496 113.865L89.1628 111.031L91.9428 121.463L81.0296 124.297L78.2496 113.865ZM57.9568 91.3475C56.4221 84.4133 57.5559 78.9215 61.3583 74.8723C63.7518 72.2953 67.0482 70.4616 71.2474 69.371C76.7651 67.9381 81.6891 68.0488 86.0194 69.703C90.3741 71.3509 93.2313 74.7255 94.5908 79.8271C95.4245 82.9554 95.3333 85.7964 94.3171 88.3502C93.7356 89.8906 92.3959 92.0138 90.2978 94.7199L88.2267 97.3804C87.0993 98.831 86.496 100.338 86.4169 101.903C86.3676 102.893 86.5873 104.354 87.0759 106.286L77.1881 108.853C76.2508 104.749 75.8943 101.844 76.1187 100.139C76.3366 98.4098 77.4946 96.1923 79.5927 93.4862L81.7178 90.7345C82.4235 89.8565 82.9424 88.9628 83.2743 88.0532C83.8981 86.4761 83.9984 84.8935 83.5752 83.3053C83.0878 81.4764 82.096 79.9587 80.5997 78.752C79.1215 77.515 76.9419 77.2705 74.061 78.0187C71.229 78.7541 69.4617 80.2036 68.7592 82.3672C68.0811 84.5245 68.0082 86.6017 68.5404 88.599L57.9568 91.3475Z" fill="#F9BA18"/>
<path d="M64.1013 144.163H51.9362L53.0499 141.393V182H48.1953V141.393L49.566 144.163H37.1725V139.879H64.1013V144.163ZM75.2273 182V139.879H89.8482C93.7129 139.879 96.6542 140.793 98.6722 142.62C100.69 144.448 101.699 147.237 101.699 150.988C101.699 153.234 101.271 155.147 100.414 156.727C99.5765 158.289 98.558 159.497 97.3586 160.354C96.1783 161.211 95.0836 161.696 94.0746 161.811C95.1026 161.887 96.1116 162.172 97.1016 162.667C98.1106 163.143 98.9482 163.886 99.6146 164.895C100.281 165.904 100.614 167.255 100.614 168.95C100.614 170.511 100.614 172.11 100.614 173.747C100.614 175.365 100.614 176.965 100.614 178.545C100.614 179.363 100.681 180.096 100.814 180.744C100.947 181.372 101.1 181.791 101.271 182H96.3591C96.2259 181.753 96.0926 181.324 95.9593 180.715C95.8261 180.106 95.7594 179.382 95.7594 178.545C95.7594 177.079 95.7594 175.584 95.7594 174.061C95.7594 172.538 95.7594 171.034 95.7594 169.549C95.7594 167.684 95.1693 166.294 93.9889 165.38C92.8086 164.466 91.1428 164.009 88.9915 164.009H78.6255L79.9962 162.153V182H75.2273ZM79.9962 161.753L78.6255 159.726H89.0486C90.4574 159.726 91.733 159.383 92.8752 158.698C94.0365 157.993 94.9598 157.023 95.6452 155.785C96.3496 154.529 96.7018 153.063 96.7018 151.387C96.7018 148.779 96.0164 146.923 94.6457 145.819C93.275 144.715 91.2951 144.163 88.706 144.163H78.5113L79.9962 142.049V161.753ZM114.248 182V139.879H119.046V182H114.248ZM141.272 182.228L129.821 139.879H135.161L144.984 178.402H144.642L154.351 139.879H159.719L148.383 182.228H141.272ZM170.474 182V139.879H175.271V182H170.474ZM186.157 182L197.751 139.765H205.348L216.856 182H211.83L201.521 142.935H201.578L191.183 182H186.157ZM192.154 170.834V166.551H210.945V170.834H192.154Z" fill="white"/>
<defs>
<filter id="filter0_di_9_298" x="0" y="0.967041" width="253" height="251.264" filterUnits="userSpaceOnUse" color-interpolation-filters="sRGB">
<feFlood flood-opacity="0" result="BackgroundImageFix"/>
<feColorMatrix in="SourceAlpha" type="matrix" values="0 0 0 0 0 0 0 0 0 0 0 0 0 0 0 0 0 0 127 0" result="hardAlpha"/>
<feOffset dy="4"/>
<feGaussianBlur stdDeviation="2"/>
<feComposite in2="hardAlpha" operator="out"/>
<feColorMatrix type="matrix" values="0 0 0 0 0 0 0 0 0 0 0 0 0 0 0 0 0 0 0.25 0"/>
<feBlend mode="normal" in2="BackgroundImageFix" result="effect1_dropShadow_9_298"/>
<feBlend mode="normal" in="SourceGraphic" in2="effect1_dropShadow_9_298" result="shape"/>
<feColorMatrix in="SourceAlpha" type="matrix" values="0 0 0 0 0 0 0 0 0 0 0 0 0 0 0 0 0 0 127 0" result="hardAlpha"/>
<feOffset dy="4"/>
<feGaussianBlur stdDeviation="17.5"/>
<feComposite in2="hardAlpha" operator="arithmetic" k2="-1" k3="1"/>
<feColorMatrix type="matrix" values="0 0 0 0 0.121493 0 0 0 0 0.0553125 0 0 0 0 0.245833 0 0 0 1 0"/>
<feBlend mode="normal" in2="shape" result="effect2_innerShadow_9_298"/>
</filter>
</defs>
</svg>
