<svg width="48" height="46" viewBox="0 0 48 46" fill="none" xmlns="http://www.w3.org/2000/svg">
<ellipse cx="23.7331" cy="23" rx="23.7331" ry="23" fill="#DDDDDD"/>
<path d="M17.1463 32V14.3H22.8703C24.0543 14.3 25.1303 14.516 26.0983 14.948C27.0743 15.372 27.9103 15.976 28.6063 16.76C29.3103 17.536 29.8503 18.464 30.2263 19.544C30.6023 20.624 30.7903 21.816 30.7903 23.12C30.7903 24.424 30.6023 25.62 30.2263 26.708C29.8503 27.796 29.3103 28.736 28.6063 29.528C27.9103 30.312 27.0743 30.92 26.0983 31.352C25.1303 31.784 24.0543 32 22.8703 32H17.1463ZM20.8903 30.896L19.2103 29.12H22.3903C23.2543 29.12 24.0343 28.88 24.7303 28.4C25.4343 27.912 25.9903 27.22 26.3983 26.324C26.8063 25.42 27.0103 24.352 27.0103 23.12C27.0103 21.88 26.8063 20.82 26.3983 19.94C25.9903 19.052 25.4343 18.372 24.7303 17.9C24.0343 17.42 23.2543 17.18 22.3903 17.18H19.2103L20.8903 15.404V30.896Z" fill="white"/>
</svg>
